<mxfile host="app.diagrams.net" modified="2023-06-25T11:12:06.702Z" agent="Mozilla/5.0 (Windows NT 10.0; Win64; x64) AppleWebKit/537.36 (KHTML, like Gecko) Chrome/114.0.0.0 Safari/537.36 Edg/114.0.1823.58" version="21.5.0" etag="pNBtOuge8eD0s94nQyCj" type="github">
  <diagram name="第 1 页" id="X5LIIVt58P5iUhz_gf4N">
    <mxGraphModel>
      <root>
        <mxCell id="0" />
        <mxCell id="1" parent="0" />
      </root>
    </mxGraphModel>
  </diagram>
</mxfile>
